# xmcd
#
# Track frame offsets:
#	150
#	16847
#	28682
#	61617
#	89515
#
# Disc length: 1505 seconds
#
# Revision: 12
# Processed by: cddbd v1.5.2PL0 Copyright (c) Steve Scherf et al.
# Submitted via: audiograbber 1.83.01
#
DISCID=3005df05
DTITLE=Brooklyn Bounce - Bass, Beats and Melody
DYEAR=2000
DGENRE=Dance
TTITLE0=Bass, Beats and Melody (Video Edit)
TTITLE1=Bass, Beats and Melody (The Underdog Project B-Boy Edit)
TTITLE2=Bass, Beats and Melody (Extended Remix)
TTITLE3=Bass, Beats and Melody (Pulsedriver Remix)
TTITLE4=Bass, Beats and Melody (The Underdog Project B-Boy Remix)
EXTD=
EXTT0=
EXTT1=
EXTT2=
EXTT3=
EXTT4=
PLAYORDER=
